<mxfile host="app.diagrams.net" modified="2022-08-14T13:16:18.177Z" agent="5.0 (X11; Linux x86_64) AppleWebKit/537.36 (KHTML, like Gecko) Chrome/103.0.0.0 Safari/537.36" etag="qm4PMYoiLg7u8aQZEP71" version="20.2.0" type="github">
  <diagram id="BQSkEKXgcyDeB3yoVETX" name="Page-1">
    <mxGraphModel dx="980" dy="557" grid="1" gridSize="10" guides="1" tooltips="1" connect="1" arrows="1" fold="1" page="1" pageScale="1" pageWidth="850" pageHeight="1100" math="0" shadow="0">
      <root>
        <mxCell id="0" />
        <mxCell id="1" parent="0" />
        <mxCell id="ccW-EzS-qIKJrXsyPBc8-1" value="&lt;p style=&quot;line-height: 2.6;&quot;&gt;NMT&lt;/p&gt;" style="rounded=0;whiteSpace=wrap;html=1;fillColor=#dae8fc;strokeColor=#6c8ebf;" vertex="1" parent="1">
          <mxGeometry x="120" y="380" width="380" height="60" as="geometry" />
        </mxCell>
        <mxCell id="ccW-EzS-qIKJrXsyPBc8-2" value="Sentence (En)" style="ellipse;whiteSpace=wrap;html=1;fillColor=#d5e8d4;strokeColor=#82b366;" vertex="1" parent="1">
          <mxGeometry x="180" y="470" width="260" height="80" as="geometry" />
        </mxCell>
        <mxCell id="ccW-EzS-qIKJrXsyPBc8-3" value="" style="shape=flexArrow;endArrow=classic;html=1;rounded=0;exitX=0.452;exitY=-0.002;exitDx=0;exitDy=0;exitPerimeter=0;entryX=0.467;entryY=1;entryDx=0;entryDy=0;entryPerimeter=0;" edge="1" parent="1" source="ccW-EzS-qIKJrXsyPBc8-2" target="ccW-EzS-qIKJrXsyPBc8-1">
          <mxGeometry width="50" height="50" relative="1" as="geometry">
            <mxPoint x="400" y="560" as="sourcePoint" />
            <mxPoint x="450" y="510" as="targetPoint" />
          </mxGeometry>
        </mxCell>
        <mxCell id="ccW-EzS-qIKJrXsyPBc8-8" value="" style="edgeStyle=orthogonalEdgeStyle;rounded=0;orthogonalLoop=1;jettySize=auto;html=1;" edge="1" parent="1" source="ccW-EzS-qIKJrXsyPBc8-4" target="ccW-EzS-qIKJrXsyPBc8-7">
          <mxGeometry relative="1" as="geometry" />
        </mxCell>
        <mxCell id="ccW-EzS-qIKJrXsyPBc8-4" value="Sentence (Hi)" style="ellipse;whiteSpace=wrap;html=1;fillColor=#fff2cc;strokeColor=#d6b656;" vertex="1" parent="1">
          <mxGeometry x="190" y="270" width="220" height="80" as="geometry" />
        </mxCell>
        <mxCell id="ccW-EzS-qIKJrXsyPBc8-5" value="" style="shape=flexArrow;endArrow=classic;html=1;rounded=0;exitX=0.5;exitY=0;exitDx=0;exitDy=0;entryX=0.54;entryY=1.017;entryDx=0;entryDy=0;entryPerimeter=0;" edge="1" parent="1" source="ccW-EzS-qIKJrXsyPBc8-1" target="ccW-EzS-qIKJrXsyPBc8-4">
          <mxGeometry width="50" height="50" relative="1" as="geometry">
            <mxPoint x="400" y="350" as="sourcePoint" />
            <mxPoint x="450" y="300" as="targetPoint" />
          </mxGeometry>
        </mxCell>
        <mxCell id="ccW-EzS-qIKJrXsyPBc8-14" value="" style="edgeStyle=orthogonalEdgeStyle;rounded=0;orthogonalLoop=1;jettySize=auto;html=1;" edge="1" parent="1" source="ccW-EzS-qIKJrXsyPBc8-6" target="ccW-EzS-qIKJrXsyPBc8-13">
          <mxGeometry relative="1" as="geometry" />
        </mxCell>
        <mxCell id="ccW-EzS-qIKJrXsyPBc8-6" value="Language Model&lt;br&gt;Trained on&amp;nbsp;" style="rounded=1;whiteSpace=wrap;html=1;fillColor=#e1d5e7;strokeColor=#9673a6;" vertex="1" parent="1">
          <mxGeometry x="570" y="240" width="230" height="120" as="geometry" />
        </mxCell>
        <mxCell id="ccW-EzS-qIKJrXsyPBc8-7" value="NMT for Back-translation" style="rounded=1;whiteSpace=wrap;html=1;fillColor=#dae8fc;strokeColor=#6c8ebf;" vertex="1" parent="1">
          <mxGeometry x="110" y="190" width="380" height="60" as="geometry" />
        </mxCell>
        <mxCell id="ccW-EzS-qIKJrXsyPBc8-9" value="Sentence (En)" style="ellipse;whiteSpace=wrap;html=1;fillColor=#d5e8d4;strokeColor=#82b366;" vertex="1" parent="1">
          <mxGeometry x="155" y="70" width="270" height="80" as="geometry" />
        </mxCell>
        <mxCell id="ccW-EzS-qIKJrXsyPBc8-10" value="" style="shape=flexArrow;endArrow=classic;html=1;rounded=0;exitX=0.5;exitY=0;exitDx=0;exitDy=0;entryX=0.537;entryY=1.003;entryDx=0;entryDy=0;entryPerimeter=0;" edge="1" parent="1" source="ccW-EzS-qIKJrXsyPBc8-7" target="ccW-EzS-qIKJrXsyPBc8-9">
          <mxGeometry width="50" height="50" relative="1" as="geometry">
            <mxPoint x="400" y="290" as="sourcePoint" />
            <mxPoint x="450" y="240" as="targetPoint" />
          </mxGeometry>
        </mxCell>
        <mxCell id="ccW-EzS-qIKJrXsyPBc8-12" value="" style="edgeStyle=segmentEdgeStyle;endArrow=classic;html=1;rounded=0;exitX=1;exitY=0.5;exitDx=0;exitDy=0;" edge="1" parent="1" source="ccW-EzS-qIKJrXsyPBc8-9" target="ccW-EzS-qIKJrXsyPBc8-6">
          <mxGeometry width="50" height="50" relative="1" as="geometry">
            <mxPoint x="400" y="340" as="sourcePoint" />
            <mxPoint x="450" y="290" as="targetPoint" />
          </mxGeometry>
        </mxCell>
        <mxCell id="ccW-EzS-qIKJrXsyPBc8-13" value="LM Score (Reward)" style="text;html=1;strokeColor=none;fillColor=none;align=center;verticalAlign=middle;whiteSpace=wrap;rounded=0;" vertex="1" parent="1">
          <mxGeometry x="655" y="400" width="60" height="30" as="geometry" />
        </mxCell>
        <mxCell id="ccW-EzS-qIKJrXsyPBc8-16" value="" style="endArrow=classic;html=1;rounded=0;exitX=0;exitY=0.75;exitDx=0;exitDy=0;" edge="1" parent="1" source="ccW-EzS-qIKJrXsyPBc8-13">
          <mxGeometry width="50" height="50" relative="1" as="geometry">
            <mxPoint x="400" y="330" as="sourcePoint" />
            <mxPoint x="500" y="420" as="targetPoint" />
          </mxGeometry>
        </mxCell>
      </root>
    </mxGraphModel>
  </diagram>
</mxfile>
